<svg viewBox="0 0 256 255" xmlns="http://www.w3.org/2000/svg" preserveAspectRatio="xMidYMid"><path d="M126.916.072c-64.832 0-60.784 28.115-60.784 28.115l.072 29.128h61.868v8.745H41.631S0 63.935 0 126.202c0 62.273 36.11 60.064 36.11 60.064h21.555v-28.915s-1.17-36.11 35.522-36.11h61.361s34.375.549 34.375-33.23V33.279S208.08.072 126.916.072zM92.802 19.66c5.686 0 10.304 4.617 10.304 10.304 0 5.686-4.618 10.304-10.304 10.304-5.688 0-10.304-4.618-10.304-10.304 0-5.687 4.616-10.304 10.304-10.304z" fill="#356A9E"/><path d="M128.757 254.126c64.832 0 60.784-28.115 60.784-28.115l-.072-29.128H127.6v-8.745h86.889s41.486 5.088 41.486-57.23c0-62.273-36.11-60.064-36.11-60.064h-21.555v28.915s1.17 36.11-35.522 36.11H101.428s-34.375-.549-34.375 33.23v55.172s-5.236 33.84 75.704 33.84zm34.07-19.586c-5.686 0-10.304-4.617-10.304-10.304 0-5.686 4.618-10.304 10.304-10.304 5.688 0 10.304 4.618 10.304 10.304 0 5.687-4.616 10.304-10.304 10.304z" fill="#FFD43B"/></svg>
